<?xml version="1.0" encoding="utf-8"?>
<!-- Generator: Adobe Illustrator 23.0.0, SVG Export Plug-In . SVG Version: 6.00 Build 0)  -->
<svg version="1.1" id="Layer_1" xmlns="http://www.w3.org/2000/svg" xmlns:xlink="http://www.w3.org/1999/xlink" x="0px" y="0px"
	 viewBox="0 0 512 512" style="enable-background:new 0 0 512 512;" xml:space="preserve">
<style type="text/css">
	.st0{fill:#FFFFFF;}
</style>
<g id="Tracking">
	<path class="st0" d="M493.7,274.3L394.3,175c-4.5-4.5-10.6-7.1-17-7H240v16h40v120h16V184h81.4c2.1,0,4.2,0.8,5.7,2.3l13.7,13.7
		H360c-8.8,0-16,7.2-16,16v72c0,8.8,7.2,16,16,16h120v64c0,4.4-3.6,8-8,8h-16.6c-4.4-30.6-32.7-51.8-63.3-47.4
		c-24.6,3.5-43.9,22.8-47.4,47.4H231.4c-4.4-30.6-32.7-51.8-63.3-47.4c-24.6,3.5-43.9,22.8-47.4,47.4H104c-4.4,0-8-3.6-8-8v-72H80
		v72c0,13.3,10.7,24,24,24h16.6c1.7,12.2,7.5,23.4,16.2,32H16v16h384c27.8-0.1,51.4-20.5,55.4-48H472c13.3,0,24-10.7,24-24v-88
		C496,277.9,495.2,275.8,493.7,274.3z M136,384c0-22.1,17.9-40,40-40s40,17.9,40,40s-17.9,40-40,40C153.9,424,136,406.1,136,384z
		 M215.1,424c8.8-8.6,14.5-19.8,16.2-32h113.3c1.7,12.2,7.5,23.4,16.2,32H215.1z M400,424c-22.1,0-40-17.9-40-40s17.9-40,40-40
		s40,17.9,40,40C440,406.1,422.1,424,400,424z M360,288v-72h52.7l67.3,67.3v4.7H360z"/>
	<rect x="168" y="376" class="st0" width="16" height="16"/>
	<rect x="392" y="376" class="st0" width="16" height="16"/>
	<rect x="16" y="352" class="st0" width="40" height="16"/>
	<rect x="32" y="320" class="st0" width="24" height="16"/>
	<rect x="40" y="288" class="st0" width="16" height="16"/>
	<path class="st0" d="M120,280c57.4,0,104-46.6,104-104S177.4,72,120,72S16,118.6,16,176C16.1,233.4,62.6,279.9,120,280z M120,88
		c48.6,0,88,39.4,88,88s-39.4,88-88,88s-88-39.4-88-88C32.1,127.4,71.4,88.1,120,88z"/>
	<path class="st0" d="M120,248c2.1,0,4.2-0.8,5.7-2.3c5.2-5.2,50.3-51.3,50.3-85.7c0-30.9-25.1-56-56-56s-56,25.1-56,56
		c0,34.3,45.2,80.5,50.3,85.7C115.8,247.2,117.9,248,120,248z M120,120c22.1,0,40,17.9,40,40c0,20.5-25.2,52.2-40,68.4
		c-14.8-16.2-40-47.9-40-68.4C80,137.9,97.9,120,120,120z"/>
	<path class="st0" d="M144,160c0-13.3-10.7-24-24-24s-24,10.7-24,24s10.7,24,24,24S144,173.3,144,160z M112,160c0-4.4,3.6-8,8-8
		s8,3.6,8,8s-3.6,8-8,8S112,164.4,112,160z"/>
	<rect x="320" y="320" class="st0" width="32" height="16"/>
</g>
</svg>
