<?xml version="1.0" encoding="utf-8"?>
<!-- Generator: Adobe Illustrator 23.0.0, SVG Export Plug-In . SVG Version: 6.00 Build 0)  -->
<svg version="1.1" id="Layer_1" xmlns="http://www.w3.org/2000/svg" xmlns:xlink="http://www.w3.org/1999/xlink" x="0px" y="0px"
	 viewBox="0 0 1000 1000" style="enable-background:new 0 0 1000 1000;" xml:space="preserve">
<style type="text/css">
	.st0{fill:#77B900;}
	.st1{fill:#FFFFFF;}
</style>
<path class="st0" d="M406.55,160.22v186.89h186.89V160.22H406.55z M552.79,306.45H447.21V200.88h105.57V306.45z"/>
<g>
	<path class="st1" d="M265.31,509.01c0-2.98,0.52-5.96,1.57-8.92c1.05-2.96,2.59-5.62,4.62-7.97c2.03-2.35,4.51-4.25,7.45-5.7
		c2.94-1.44,6.27-2.17,10-2.17c4.43,0,8.23,1,11.4,3.01c3.17,2,5.52,4.62,7.06,7.83l-4.97,3.22c-0.75-1.58-1.64-2.91-2.69-3.99
		s-2.19-1.93-3.43-2.59c-1.24-0.65-2.51-1.12-3.81-1.4c-1.31-0.28-2.59-0.42-3.85-0.42c-2.75,0-5.19,0.57-7.31,1.71
		c-2.12,1.14-3.91,2.63-5.35,4.48c-1.45,1.84-2.53,3.92-3.25,6.22c-0.72,2.31-1.08,4.63-1.08,6.96c0,2.61,0.43,5.09,1.29,7.45
		c0.86,2.35,2.06,4.44,3.6,6.26c1.54,1.82,3.36,3.26,5.45,4.34c2.1,1.07,4.38,1.61,6.85,1.61c1.3,0,2.65-0.16,4.02-0.49
		c1.37-0.33,2.69-0.85,3.95-1.57s2.44-1.63,3.53-2.73c1.09-1.09,1.99-2.41,2.69-3.95l5.25,2.87c-0.79,1.87-1.9,3.51-3.32,4.93
		c-1.42,1.42-3.03,2.62-4.83,3.6c-1.8,0.98-3.7,1.73-5.7,2.24c-2.01,0.51-3.96,0.77-5.87,0.77c-3.4,0-6.53-0.75-9.37-2.24
		c-2.84-1.49-5.3-3.44-7.38-5.84c-2.08-2.4-3.68-5.13-4.83-8.18C265.88,515.29,265.31,512.18,265.31,509.01z"/>
	<path class="st1" d="M331.18,534.88c-2.75,0-5.26-0.51-7.52-1.54c-2.26-1.03-4.2-2.4-5.8-4.13s-2.86-3.73-3.74-6.01
		c-0.89-2.28-1.33-4.69-1.33-7.2c0-2.56,0.45-4.99,1.36-7.27c0.91-2.28,2.17-4.29,3.78-6.01c1.61-1.72,3.54-3.1,5.8-4.13
		c2.26-1.03,4.74-1.54,7.45-1.54c2.7,0,5.2,0.51,7.48,1.54c2.28,1.03,4.23,2.4,5.84,4.13c1.61,1.73,2.87,3.73,3.78,6.01
		c0.91,2.29,1.36,4.71,1.36,7.27c0,2.52-0.44,4.92-1.33,7.2c-0.89,2.29-2.15,4.29-3.78,6.01c-1.63,1.72-3.58,3.1-5.84,4.13
		C336.44,534.37,333.93,534.88,331.18,534.88z M319.09,516.07c0,1.91,0.31,3.68,0.94,5.31c0.63,1.63,1.49,3.05,2.59,4.27
		c1.09,1.21,2.38,2.17,3.85,2.87c1.47,0.7,3.04,1.05,4.72,1.05c1.68,0,3.25-0.35,4.72-1.05c1.47-0.7,2.76-1.67,3.88-2.9
		s1.99-2.68,2.62-4.34c0.63-1.65,0.94-3.44,0.94-5.35c0-1.86-0.31-3.62-0.94-5.28c-0.63-1.65-1.5-3.1-2.62-4.34s-2.41-2.2-3.88-2.9
		s-3.04-1.05-4.72-1.05c-1.68,0-3.25,0.36-4.72,1.08c-1.47,0.72-2.75,1.7-3.85,2.94c-1.1,1.24-1.96,2.68-2.59,4.34
		C319.4,512.38,319.09,514.16,319.09,516.07z"/>
	<path class="st1" d="M412.17,534.18h-6.15v-20.42c0-3.82-0.62-6.64-1.85-8.46c-1.24-1.82-3.07-2.73-5.49-2.73
		c-2.52,0-4.77,0.9-6.75,2.69c-1.98,1.79-3.39,4.12-4.23,6.96v21.96h-6.15v-20.42c0-3.92-0.61-6.76-1.82-8.53
		c-1.21-1.77-3.03-2.66-5.46-2.66c-2.47,0-4.71,0.87-6.71,2.62c-2,1.75-3.43,4.07-4.27,6.96v22.03h-6.15v-36.5h5.59v7.83
		c1.49-2.7,3.43-4.79,5.8-6.26c2.38-1.47,5.06-2.2,8.04-2.2c3.08,0,5.51,0.83,7.31,2.48c1.79,1.66,2.9,3.79,3.32,6.4
		c3.26-5.92,7.9-8.88,13.92-8.88c2.1,0,3.86,0.38,5.28,1.15c1.42,0.77,2.55,1.84,3.39,3.22c0.84,1.38,1.44,3,1.82,4.86
		c0.37,1.87,0.56,3.89,0.56,6.08V534.18z"/>
	<path class="st1" d="M421.75,490.82v-7.69h6.15v7.69H421.75z M421.75,534.18v-36.5h6.15v36.5H421.75z"/>
	<path class="st1" d="M469.51,534.18h-6.15v-20.42c0-3.92-0.59-6.76-1.78-8.53c-1.19-1.77-3-2.66-5.42-2.66
		c-1.26,0-2.52,0.24-3.78,0.73c-1.26,0.49-2.45,1.15-3.57,1.99c-1.12,0.84-2.1,1.84-2.94,3.01c-0.84,1.17-1.47,2.45-1.89,3.85v22.03
		h-6.15v-36.5h5.59v7.83c1.44-2.56,3.53-4.62,6.26-6.15c2.73-1.54,5.7-2.31,8.92-2.31c2.1,0,3.85,0.38,5.25,1.15
		c1.4,0.77,2.52,1.84,3.36,3.22c0.84,1.38,1.43,3,1.78,4.86c0.35,1.87,0.52,3.89,0.52,6.08V534.18z"/>
	<path class="st1" d="M493.64,534.6c-2.47,0-4.74-0.51-6.82-1.54c-2.08-1.02-3.86-2.4-5.35-4.13c-1.49-1.72-2.65-3.71-3.46-5.94
		c-0.82-2.24-1.22-4.57-1.22-6.99c0-2.56,0.41-5,1.22-7.31c0.81-2.31,1.97-4.32,3.46-6.05c1.49-1.72,3.27-3.09,5.35-4.09
		c2.07-1,4.37-1.5,6.89-1.5c3.08,0,5.73,0.75,7.97,2.24c2.24,1.49,4.13,3.38,5.66,5.66v-7.27h5.46v36.08c0,2.61-0.49,4.91-1.47,6.89
		c-0.98,1.98-2.31,3.65-3.99,5c-1.68,1.35-3.65,2.38-5.91,3.08c-2.26,0.7-4.67,1.05-7.24,1.05c-4.15,0-7.52-0.71-10.11-2.13
		c-2.59-1.42-4.74-3.39-6.47-5.91l3.57-3.15c1.44,2.14,3.31,3.75,5.59,4.83c2.28,1.07,4.76,1.61,7.41,1.61
		c1.68,0,3.27-0.23,4.79-0.7c1.51-0.47,2.83-1.17,3.95-2.1s2.02-2.1,2.69-3.5c0.67-1.4,1.01-3.05,1.01-4.97v-6.43
		c-0.7,1.12-1.53,2.13-2.48,3.04c-0.96,0.91-1.99,1.68-3.11,2.31c-1.12,0.63-2.31,1.11-3.57,1.43
		C496.22,534.44,494.94,534.6,493.64,534.6z M495.53,529.57c1.3,0,2.56-0.23,3.78-0.7c1.21-0.47,2.33-1.08,3.36-1.85
		s1.89-1.64,2.59-2.62c0.7-0.98,1.17-1.98,1.4-3.01v-10.49c-0.51-1.26-1.18-2.4-1.99-3.43c-0.82-1.02-1.74-1.92-2.76-2.69
		c-1.03-0.77-2.13-1.36-3.32-1.78c-1.19-0.42-2.39-0.63-3.6-0.63c-1.87,0-3.53,0.4-5,1.19c-1.47,0.79-2.72,1.84-3.74,3.15
		c-1.03,1.31-1.82,2.79-2.38,4.44c-0.56,1.66-0.84,3.32-0.84,5c0,1.82,0.33,3.54,0.98,5.18c0.65,1.63,1.54,3.05,2.66,4.27
		c1.12,1.21,2.44,2.18,3.95,2.9C492.11,529.21,493.75,529.57,495.53,529.57z"/>
	<path class="st1" d="M553.22,534.88c-2.94,0-5.83-0.45-8.67-1.36s-5.29-2.23-7.34-3.95l2.66-4.13c2.14,1.63,4.29,2.86,6.43,3.67
		c2.14,0.82,4.41,1.22,6.78,1.22c2.66,0,4.77-0.52,6.33-1.57c1.56-1.05,2.34-2.53,2.34-4.44c0-0.89-0.21-1.64-0.63-2.27
		c-0.42-0.63-1.05-1.18-1.89-1.64s-1.91-0.89-3.22-1.26c-1.31-0.37-2.82-0.77-4.55-1.19c-2.19-0.56-4.08-1.09-5.67-1.61
		c-1.58-0.51-2.89-1.12-3.92-1.82s-1.77-1.54-2.24-2.52c-0.47-0.98-0.7-2.19-0.7-3.64c0-1.82,0.36-3.44,1.08-4.86
		c0.72-1.42,1.71-2.61,2.97-3.57c1.26-0.96,2.74-1.68,4.44-2.17c1.7-0.49,3.53-0.73,5.49-0.73c2.75,0,5.31,0.44,7.69,1.33
		c2.38,0.89,4.38,2.05,6.01,3.5l-2.8,3.71c-1.54-1.35-3.26-2.37-5.17-3.04c-1.91-0.68-3.87-1.01-5.87-1.01
		c-2.24,0-4.14,0.48-5.7,1.43c-1.56,0.96-2.34,2.48-2.34,4.58c0,0.84,0.15,1.54,0.46,2.1c0.3,0.56,0.8,1.05,1.5,1.47
		c0.7,0.42,1.6,0.79,2.69,1.12c1.1,0.33,2.41,0.68,3.95,1.05c2.42,0.56,4.53,1.13,6.33,1.71s3.29,1.27,4.48,2.06
		c1.19,0.79,2.07,1.73,2.66,2.8c0.58,1.07,0.87,2.38,0.87,3.92c0,3.4-1.31,6.11-3.92,8.11
		C561.17,533.88,557.65,534.88,553.22,534.88z"/>
	<path class="st1" d="M590.91,534.88c-2.75,0-5.26-0.51-7.52-1.54c-2.26-1.03-4.2-2.4-5.8-4.13s-2.86-3.73-3.74-6.01
		c-0.89-2.28-1.33-4.69-1.33-7.2c0-2.56,0.45-4.99,1.36-7.27c0.91-2.28,2.17-4.29,3.78-6.01c1.61-1.72,3.54-3.1,5.8-4.13
		c2.26-1.03,4.74-1.54,7.45-1.54c2.7,0,5.2,0.51,7.48,1.54s4.23,2.4,5.84,4.13c1.61,1.73,2.87,3.73,3.78,6.01
		c0.91,2.29,1.36,4.71,1.36,7.27c0,2.52-0.44,4.92-1.33,7.2c-0.89,2.29-2.15,4.29-3.78,6.01c-1.63,1.72-3.58,3.1-5.84,4.13
		C596.17,534.37,593.66,534.88,590.91,534.88z M578.81,516.07c0,1.91,0.31,3.68,0.94,5.31c0.63,1.63,1.49,3.05,2.59,4.27
		c1.1,1.21,2.38,2.17,3.85,2.87c1.47,0.7,3.04,1.05,4.72,1.05c1.68,0,3.25-0.35,4.72-1.05c1.47-0.7,2.76-1.67,3.88-2.9
		s1.99-2.68,2.62-4.34c0.63-1.65,0.94-3.44,0.94-5.35c0-1.86-0.31-3.62-0.94-5.28c-0.63-1.65-1.5-3.1-2.62-4.34s-2.41-2.2-3.88-2.9
		c-1.47-0.7-3.04-1.05-4.72-1.05c-1.68,0-3.25,0.36-4.72,1.08c-1.47,0.72-2.75,1.7-3.85,2.94c-1.1,1.24-1.96,2.68-2.59,4.34
		C579.13,512.38,578.81,514.16,578.81,516.07z"/>
	<path class="st1" d="M632.8,534.88c-2.75,0-5.26-0.51-7.52-1.54c-2.26-1.03-4.2-2.4-5.8-4.13s-2.86-3.73-3.74-6.01
		c-0.89-2.28-1.33-4.69-1.33-7.2c0-2.56,0.45-4.99,1.36-7.27c0.91-2.28,2.17-4.29,3.78-6.01c1.61-1.72,3.54-3.1,5.8-4.13
		c2.26-1.03,4.74-1.54,7.45-1.54c2.7,0,5.2,0.51,7.48,1.54s4.23,2.4,5.84,4.13c1.61,1.73,2.87,3.73,3.78,6.01
		c0.91,2.29,1.36,4.71,1.36,7.27c0,2.52-0.44,4.92-1.33,7.2c-0.89,2.29-2.15,4.29-3.78,6.01c-1.63,1.72-3.58,3.1-5.84,4.13
		C638.06,534.37,635.55,534.88,632.8,534.88z M620.7,516.07c0,1.91,0.31,3.68,0.94,5.31c0.63,1.63,1.49,3.05,2.59,4.27
		c1.1,1.21,2.38,2.17,3.85,2.87c1.47,0.7,3.04,1.05,4.72,1.05c1.68,0,3.25-0.35,4.72-1.05c1.47-0.7,2.76-1.67,3.88-2.9
		s1.99-2.68,2.62-4.34c0.63-1.65,0.94-3.44,0.94-5.35c0-1.86-0.31-3.62-0.94-5.28c-0.63-1.65-1.5-3.1-2.62-4.34s-2.41-2.2-3.88-2.9
		c-1.47-0.7-3.04-1.05-4.72-1.05c-1.68,0-3.25,0.36-4.72,1.08c-1.47,0.72-2.75,1.7-3.85,2.94c-1.1,1.24-1.96,2.68-2.59,4.34
		C621.02,512.38,620.7,514.16,620.7,516.07z"/>
	<path class="st1" d="M690.43,534.18h-6.15v-20.42c0-3.92-0.59-6.76-1.78-8.53c-1.19-1.77-3-2.66-5.42-2.66
		c-1.26,0-2.52,0.24-3.78,0.73c-1.26,0.49-2.45,1.15-3.57,1.99c-1.12,0.84-2.1,1.84-2.94,3.01c-0.84,1.17-1.47,2.45-1.89,3.85v22.03
		h-6.15v-36.5h5.59v7.83c1.45-2.56,3.53-4.62,6.26-6.15c2.73-1.54,5.7-2.31,8.92-2.31c2.1,0,3.85,0.38,5.25,1.15
		s2.52,1.84,3.36,3.22c0.84,1.38,1.43,3,1.78,4.86c0.35,1.87,0.52,3.89,0.52,6.08V534.18z"/>
	<path class="st1" d="M699.52,534.18v-7.83h5.17v7.83H699.52z"/>
	<path class="st1" d="M713.64,534.18v-7.83h5.17v7.83H713.64z"/>
	<path class="st1" d="M727.77,534.18v-7.83h5.17v7.83H727.77z"/>
</g>
</svg>
