<?xml version="1.0" encoding="utf-8"?>
<!-- Generator: Adobe Illustrator 23.0.0, SVG Export Plug-In . SVG Version: 6.00 Build 0)  -->
<svg version="1.1" xmlns="http://www.w3.org/2000/svg" xmlns:xlink="http://www.w3.org/1999/xlink" x="0px" y="0px"
	 viewBox="0 0 356.5 174" style="enable-background:new 0 0 356.5 174;" xml:space="preserve">
<style type="text/css">
	.st0{display:none;}
	.st1{display:inline;fill:#383838;}
	.st2{fill:#77B900;}
	.st3{fill:#FFFFFF;}
</style>
<g id="Layer_2" class="st0">
	<rect x="-342" y="-413" class="st1" width="1036" height="1018"/>
</g>
<g id="Layer_1">
	<g>
		<g>
			<path class="st2" d="M12.6,11v152h152V11H12.6z M131.6,129.9H45.7V44.1h85.9L131.6,129.9L131.6,129.9z"/>
		</g>
		<g>
			<path class="st3" d="M263.4,45.1v54.8c0,6.2-1.3,11.6-4,16.1c-2.6,4.5-6.4,8-11.4,10.4c-4.9,2.4-10.8,3.6-17.5,3.6
				c-10.2,0-18.2-2.6-24.1-7.9c-5.9-5.3-8.9-12.5-9-21.7V45.1h20.3v55.6c0.2,9.2,4.5,13.7,12.8,13.7c4.2,0,7.3-1.2,9.5-3.4
				c2.1-2.3,3.2-6,3.2-11.2V45.1H263.4z"/>
			<path class="st3" d="M323.7,106.6c0-3-1-5.3-3.1-6.9c-2.1-1.6-5.8-3.4-11-5.1c-5.3-1.8-9.5-3.5-12.9-5.1
				c-10.8-5.3-16.3-12.6-16.3-22c0-4.6,1.4-8.7,4.1-12.3c2.7-3.5,6.5-6.3,11.5-8.3c4.9-2,10.5-3,16.7-3c6,0,11.4,1.1,16.2,3.2
				c4.8,2.1,8.5,5.2,11.1,9.2c2.6,4,4,8.5,4,13.6h-20.1c0-3.4-1-6.1-3.1-7.9c-2.1-1.9-4.9-2.8-8.5-2.8c-3.6,0-6.4,0.8-8.5,2.4
				c-2.1,1.6-3.1,3.6-3.1,6.1c0,2.1,1.1,4.1,3.4,5.8c2.3,1.7,6.3,3.5,12.1,5.4c5.8,1.9,10.5,3.9,14.3,6c9,5.2,13.6,12.4,13.6,21.6
				c0,7.3-2.8,13.1-8.3,17.2c-5.5,4.2-13.1,6.3-22.7,6.3c-6.8,0-12.9-1.2-18.4-3.7c-5.5-2.4-9.6-5.8-12.4-10
				c-2.8-4.2-4.2-9.1-4.2-14.6h20.2c0,4.5,1.2,7.8,3.5,9.9c2.3,2.1,6.1,3.2,11.3,3.2c3.3,0,6-0.7,7.9-2.2
				C322.7,111.2,323.7,109.2,323.7,106.6z"/>
		</g>
	</g>
</g>
</svg>
